<svg width="29" height="32" viewBox="0 0 29 32" fill="none" xmlns="http://www.w3.org/2000/svg">
<path fill-rule="evenodd" clip-rule="evenodd" d="M16.0488 0.488109C15.9517 0.357347 15.8294 0.247588 15.6891 0.165387C15.5489 0.0831853 15.3936 0.0302271 15.2326 0.00967402C15.0715 -0.0108791 14.908 0.00139435 14.7518 0.0457617C14.5955 0.0901291 14.4498 0.165681 14.3233 0.267905C11.2357 2.75908 9.19902 6.33102 8.62157 10.2678C7.56336 9.49656 6.63581 8.55891 5.87463 7.49092C5.77125 7.34569 5.63727 7.22516 5.48223 7.13791C5.32719 7.05067 5.15492 6.99886 4.97768 6.98619C4.80044 6.97351 4.62261 7.00027 4.45684 7.06456C4.29107 7.12886 4.14145 7.2291 4.01863 7.35815C1.89087 9.5951 0.526951 12.4547 0.124435 15.5228C-0.278081 18.5908 0.301712 21.708 1.77983 24.4228C3.25795 27.1375 5.55763 29.3089 8.34576 30.6223C11.1339 31.9358 14.2657 32.3231 17.2875 31.7282C20.3093 31.1333 23.0642 29.587 25.1531 27.3134C27.2421 25.0398 28.5566 22.1569 28.9062 19.0823C29.2558 16.0077 28.6225 12.9011 27.0978 10.2124C25.5732 7.52378 23.2365 5.39273 20.4262 4.12795C18.6986 3.28368 17.1975 2.03553 16.0488 0.488109ZM20.5389 19.8596C20.5383 20.7379 20.3482 21.6056 19.9815 22.4028C19.6149 23.2 19.0805 23.9079 18.4152 24.4774C17.75 25.047 16.9697 25.4647 16.1282 25.7018C15.2868 25.9389 14.4041 25.9897 13.5412 25.8507C12.6783 25.7117 11.8557 25.3863 11.1301 24.8968C10.4045 24.4073 9.79319 23.7654 9.33836 23.0155C8.88353 22.2655 8.59601 21.4253 8.49562 20.5529C8.39524 19.6804 8.48438 18.7964 8.75691 17.962C9.76868 18.7149 10.9319 19.2735 12.1934 19.5811C12.5354 17.3644 13.6314 15.3354 15.2948 13.8396C16.7464 14.0339 18.0784 14.7514 19.043 15.8588C20.0077 16.9661 20.5393 18.3879 20.5389 19.8596Z" fill="#C23B23"/>
</svg>
